<?xml version="1.0" encoding="UTF-8" standalone="no"?>
<!DOCTYPE svg PUBLIC "-//W3C//DTD SVG 1.1//EN" "http://www.w3.org/Graphics/SVG/1.1/DTD/svg11.dtd">
<svg width="100%" height="100%" viewBox="0 0 3508 2481" version="1.1" xmlns="http://www.w3.org/2000/svg" xmlns:xlink="http://www.w3.org/1999/xlink" xml:space="preserve" xmlns:serif="http://www.serif.com/" style="fill-rule:evenodd;clip-rule:evenodd;stroke-linejoin:round;stroke-miterlimit:2;">
    <g transform="matrix(0.718921,0,0,1,443.224836,208.15748)">
        <g transform="matrix(1.390973,0,0,1,-106.34474,0)">
            <g transform="matrix(1080.539877,0,0,1080.539877,272,1401.377914)">
                <path d="M0.055,-0.494L0.055,-0L0.104,-0L0.104,-0.288C0.104,-0.378 0.175,-0.452 0.267,-0.453C0.296,-0.453 0.325,-0.446 0.351,-0.43L0.373,-0.47C0.34,-0.49 0.304,-0.5 0.267,-0.499C0.204,-0.499 0.134,-0.473 0.103,-0.406L0.101,-0.494L0.055,-0.494Z" style="fill-rule:nonzero;"/>
            </g>
            <g transform="matrix(1080.539877,0,0,1080.539877,729.068368,1401.377914)">
                <path d="M0.424,-0.494L0.3,-0.203L0.243,-0.059L0.185,-0.202L0.07,-0.494L0.017,-0.494L0.215,-0.006L0.124,0.206L0.176,0.206L0.477,-0.494L0.424,-0.494Z" style="fill-rule:nonzero;"/>
            </g>
            <g transform="matrix(1080.539877,0,0,1080.539877,1287.707485,1401.377914)">
                <path d="M0.427,-0.102C0.387,-0.062 0.333,-0.041 0.28,-0.041C0.168,-0.041 0.074,-0.114 0.074,-0.247C0.074,-0.38 0.168,-0.453 0.28,-0.453C0.333,-0.453 0.388,-0.434 0.428,-0.394L0.46,-0.425C0.41,-0.474 0.345,-0.499 0.28,-0.499C0.137,-0.499 0.026,-0.403 0.026,-0.247C0.026,-0.091 0.141,0.005 0.28,0.005C0.345,0.005 0.41,-0.019 0.46,-0.069L0.427,-0.102Z" style="fill-rule:nonzero;"/>
            </g>
            <g transform="matrix(1080.539877,0,0,1080.539877,1844.185521,1401.377914)">
                <path d="M0.283,0.007C0.422,0.007 0.534,-0.089 0.534,-0.246C0.534,-0.403 0.422,-0.503 0.283,-0.503C0.144,-0.503 0.032,-0.403 0.032,-0.246C0.032,-0.089 0.144,0.007 0.283,0.007ZM0.283,-0.041C0.171,-0.041 0.08,-0.118 0.08,-0.246C0.08,-0.374 0.171,-0.457 0.283,-0.457C0.395,-0.457 0.486,-0.374 0.486,-0.246C0.486,-0.118 0.395,-0.041 0.283,-0.041Z" style="fill-rule:nonzero;"/>
            </g>
        </g>
    </g>
</svg>
