<?xml version="1.0" encoding="UTF-8"?>
<svg version="1.1" xmlns="http://www.w3.org/2000/svg" width="1254" height="1254">
<path d="M0 0 C1.64251296 -0.00313914 3.28502383 -0.00759004 4.92753017 -0.0132131 C9.40429271 -0.02479472 13.88085872 -0.01795901 18.35761772 -0.00787924 C23.24199994 -0.00022241 28.1263536 -0.01006727 33.0107317 -0.01760924 C41.55918597 -0.02841439 50.10758334 -0.02813406 58.65604019 -0.02046776 C71.36810753 -0.00909861 84.08012706 -0.0149328 96.7921941 -0.02409268 C119.49875652 -0.0398757 142.20529359 -0.03852638 164.91185841 -0.02985594 C184.7829012 -0.02230561 204.65393471 -0.02034088 224.52497864 -0.02392387 C225.84370391 -0.02415303 227.16242918 -0.02438218 228.52111582 -0.02461828 C233.87441756 -0.02554973 239.2277193 -0.02650574 244.58102103 -0.02749758 C259.54455348 -0.03024823 274.50808597 -0.0319603 289.47161865 -0.03285599 C290.15295157 -0.03289692 290.83428448 -0.03293786 291.53626385 -0.03298004 C313.23772915 -0.03420738 334.93919123 -0.03082975 356.64065552 -0.02430725 C357.69603814 -0.02399113 357.69603814 -0.02399113 358.77274163 -0.02366862 C370.19765967 -0.02023402 381.62257765 -0.01657552 393.04749561 -0.0128981 C438.35651701 0.00167025 483.6655118 0.00099406 528.97453308 -0.01358986 C540.39376828 -0.0172536 551.81300349 -0.02088683 563.23223877 -0.02430725 C563.93541808 -0.0245186 564.63859739 -0.02472994 565.36308516 -0.02494769 C587.04248241 -0.03141884 608.72187745 -0.03415858 630.40127563 -0.03285599 C631.42251902 -0.03279486 631.42251902 -0.03279486 632.46439358 -0.03273249 C647.41146363 -0.03179495 662.35853343 -0.02989381 677.30560324 -0.02712448 C683.31970737 -0.02601422 689.33381151 -0.02496895 695.34791565 -0.02392387 C697.32142806 -0.02356803 697.32142806 -0.02356803 699.3348094 -0.02320499 C719.19206699 -0.01979435 739.04931427 -0.0237801 758.90657043 -0.03136253 C781.48793818 -0.03994224 804.06927663 -0.03779167 826.65064073 -0.0215203 C839.28448264 -0.01271678 851.91826112 -0.01212873 864.55210138 -0.02345882 C872.9958072 -0.0301953 881.43946227 -0.02598243 889.88316059 -0.01294452 C894.690772 -0.00582271 899.49825757 -0.00333777 904.30586493 -0.01416247 C908.68908906 -0.02393068 913.07207698 -0.01962622 917.45528425 -0.00462049 C919.0217387 -0.00162671 920.5882132 -0.00352315 922.15465151 -0.0112383 C936.29038358 -0.07585802 950.65906613 1.28192427 964.06144714 6.06502342 C964.79387634 6.31921043 965.52630554 6.57339745 966.28092957 6.83528709 C998.43131076 18.39392516 1023.55304774 41.95460958 1038.30754089 72.62752342 C1040.1356807 76.72360688 1041.71338988 80.89184826 1043.18644714 85.12752342 C1043.42065369 85.78075584 1043.65486023 86.43398827 1043.89616394 87.10701561 C1048.41051013 100.81353536 1049.38446183 115.12894981 1049.31397057 129.44107628 C1049.3171097 131.08358924 1049.32156061 132.72610011 1049.32718366 134.36860645 C1049.33876528 138.84536899 1049.33192958 143.321935 1049.32184981 147.798694 C1049.31419298 152.68307622 1049.32403784 157.56742988 1049.3315798 162.45180798 C1049.34238495 171.00026225 1049.34210462 179.54865962 1049.33443832 188.09711647 C1049.32306918 200.80918381 1049.32890336 213.52120334 1049.33806325 226.23327038 C1049.35384627 248.9398328 1049.35249695 271.64636987 1049.34382651 294.35293469 C1049.33627617 314.22397748 1049.33431145 334.09501099 1049.33789444 353.96605492 C1049.33812359 355.28478019 1049.33835275 356.60350545 1049.33858885 357.9621921 C1049.3395203 363.31549384 1049.3404763 368.66879558 1049.34146814 374.02209731 C1049.3442188 388.98562976 1049.34593087 403.94916225 1049.34682655 418.91269493 C1049.34686749 419.59402785 1049.34690843 420.27536076 1049.34695061 420.97734013 C1049.34817795 442.67880543 1049.34480031 464.38026751 1049.33827782 486.0817318 C1049.33806707 486.78532021 1049.33785632 487.48890863 1049.33763919 488.21381791 C1049.33420458 499.63873595 1049.33054608 511.06365392 1049.32686867 522.48857189 C1049.31230031 567.79759328 1049.3129765 613.10658808 1049.32756042 658.41560936 C1049.33122417 669.83484456 1049.33485739 681.25407977 1049.33827782 692.67331505 C1049.33859483 693.72808401 1049.33859483 693.72808401 1049.33891825 694.80416144 C1049.34538941 716.48355869 1049.34812914 738.16295373 1049.34682655 759.84235191 C1049.34676542 760.8635953 1049.34676542 760.8635953 1049.34670306 761.90546986 C1049.34576551 776.85253991 1049.34386438 791.79960971 1049.34109504 806.74667952 C1049.33998479 812.76078365 1049.33893951 818.77488779 1049.33789444 824.78899193 C1049.33753859 826.76250433 1049.33753859 826.76250433 1049.33717555 828.77588568 C1049.33376491 848.63314327 1049.33775066 868.49039055 1049.3453331 888.34764671 C1049.3539128 910.92901445 1049.35176223 933.51035291 1049.33549087 956.091717 C1049.32668735 968.72555892 1049.3260993 981.3593374 1049.33742939 993.99317766 C1049.34416586 1002.43688348 1049.33995299 1010.88053855 1049.32691508 1019.32423687 C1049.31979327 1024.13184828 1049.31730833 1028.93933385 1049.32813303 1033.74694121 C1049.33790125 1038.13016534 1049.33359679 1042.51315325 1049.31859105 1046.89636053 C1049.31559728 1048.46281498 1049.31749371 1050.02928948 1049.32520887 1051.59572779 C1049.38982859 1065.73145986 1048.0320463 1080.10014241 1043.24894714 1093.50252342 C1042.99476013 1094.23495262 1042.74057312 1094.96738182 1042.47868347 1095.72200584 C1030.9200454 1127.87238704 1007.35936098 1152.99412402 976.68644714 1167.74861717 C972.59036369 1169.57675698 968.4221223 1171.15446616 964.18644714 1172.62752342 C963.53321472 1172.86172997 962.8799823 1173.09593651 962.20695496 1173.33724022 C948.50043521 1177.85158641 934.18502075 1178.82553811 919.87289429 1178.75504684 C918.23038133 1178.75818598 916.58787045 1178.76263689 914.94536412 1178.76825994 C910.46860158 1178.77984156 905.99203557 1178.77300585 901.51527657 1178.76292608 C896.63089435 1178.75526926 891.74654069 1178.76511412 886.86216259 1178.77265608 C878.31370832 1178.78346123 869.76531095 1178.7831809 861.2168541 1178.7755146 C848.50478676 1178.76414545 835.79276723 1178.76997964 823.08070019 1178.77913952 C800.37413777 1178.79492255 777.6676007 1178.79357322 754.96103588 1178.78490279 C735.08999309 1178.77735245 715.21895958 1178.77538773 695.34791565 1178.77897072 C694.02919038 1178.77919987 692.71046511 1178.77942903 691.35177847 1178.77966513 C685.99847673 1178.78059658 680.64517499 1178.78155258 675.29187326 1178.78254442 C660.3283408 1178.78529508 645.36480831 1178.78700715 630.40127563 1178.78790283 C629.71994272 1178.78794377 629.0386098 1178.78798471 628.33663043 1178.78802688 C606.63516514 1178.78925423 584.93370306 1178.78587659 563.23223877 1178.7793541 C562.17685614 1178.77903797 562.17685614 1178.77903797 561.10015266 1178.77871547 C549.67523462 1178.77528086 538.25031664 1178.77162236 526.82539867 1178.76794495 C481.51637728 1178.75337659 436.20738248 1178.75405278 390.89836121 1178.7686367 C379.479126 1178.77230045 368.0598908 1178.77593367 356.64065552 1178.7793541 C355.58588655 1178.77967111 355.58588655 1178.77967111 354.50980912 1178.77999453 C332.83041188 1178.78646569 311.15101684 1178.78920542 289.47161865 1178.78790283 C288.45037527 1178.7878417 288.45037527 1178.7878417 287.4085007 1178.78777934 C272.46143066 1178.78684179 257.51436085 1178.78494066 242.56729104 1178.78217132 C236.55318692 1178.78106106 230.53908278 1178.78001579 224.52497864 1178.77897072 C222.55146623 1178.77861487 222.55146623 1178.77861487 220.53808489 1178.77825183 C200.6808273 1178.77484119 180.82358002 1178.77882694 160.96632385 1178.78640938 C138.38495611 1178.79498908 115.80361766 1178.79283851 93.22225356 1178.77656715 C80.58841165 1178.76776362 67.95463317 1178.76717558 55.32079291 1178.77850567 C46.87708708 1178.78524214 38.43343202 1178.78102927 29.9897337 1178.76799136 C25.18212229 1178.76086955 20.37463672 1178.75838461 15.56702936 1178.76920931 C11.18380522 1178.77897753 6.80081731 1178.77467307 2.41761003 1178.75966733 C0.85115559 1178.75667355 -0.71531892 1178.75856999 -2.28175722 1178.76628514 C-16.41748929 1178.83090487 -30.78617185 1177.47312257 -44.18855286 1172.69002342 C-44.92098206 1172.43583641 -45.65341125 1172.1816494 -46.40803528 1171.91975975 C-78.55841647 1160.36112168 -103.68015345 1136.80043726 -118.43464661 1106.12752342 C-120.26278642 1102.03143997 -121.8404956 1097.86319858 -123.31355286 1093.62752342 C-123.5477594 1092.974291 -123.78196594 1092.32105858 -124.02326965 1091.64803123 C-128.53761585 1077.94151149 -129.51156755 1063.62609703 -129.44107628 1049.31397057 C-129.44421541 1047.6714576 -129.44866632 1046.02894673 -129.45428938 1044.3864404 C-129.46587099 1039.90967786 -129.45903529 1035.43311185 -129.44895552 1030.95635284 C-129.44129869 1026.07197063 -129.45114355 1021.18761696 -129.45868552 1016.30323887 C-129.46949066 1007.7547846 -129.46921034 999.20638722 -129.46154404 990.65793037 C-129.45017489 977.94586304 -129.45600907 965.23384351 -129.46516896 952.52177647 C-129.48095198 929.81521405 -129.47960266 907.10867698 -129.47093222 884.40211216 C-129.46338189 864.53106937 -129.46141716 844.66003586 -129.46500015 824.78899193 C-129.46522931 823.47026666 -129.46545846 822.15154139 -129.46569456 820.79285475 C-129.46662601 815.43955301 -129.46758201 810.08625127 -129.46857385 804.73294954 C-129.47132451 789.76941708 -129.47303658 774.80588459 -129.47393227 759.84235191 C-129.4739732 759.161019 -129.47401414 758.47968608 -129.47405632 757.77770671 C-129.47528366 736.07624142 -129.47190603 714.37477934 -129.46538353 692.67331505 C-129.46517278 691.96972663 -129.46496204 691.26613822 -129.4647449 690.54122894 C-129.4613103 679.11631089 -129.4576518 667.69139292 -129.45397438 656.26647495 C-129.43940602 610.95745356 -129.44008222 565.64845876 -129.45466614 520.33943748 C-129.45832988 508.92020228 -129.46196311 497.50096707 -129.46538353 486.0817318 C-129.46559487 485.37855249 -129.46580622 484.67537318 -129.46602397 483.9508854 C-129.47249512 462.27148815 -129.47523486 440.59209312 -129.47393227 418.91269493 C-129.47389151 418.23186601 -129.47385076 417.55103708 -129.47380877 416.84957698 C-129.47287123 401.90250694 -129.47097009 386.95543713 -129.46820076 372.00836732 C-129.4670905 365.99426319 -129.46604523 359.98015906 -129.46500015 353.96605492 C-129.46476292 352.65037998 -129.46452569 351.33470504 -129.46428127 349.97916117 C-129.46087062 330.12190357 -129.46485638 310.26465629 -129.47243881 290.40740013 C-129.48101852 267.82603239 -129.47886795 245.24469393 -129.46259658 222.66332984 C-129.45379306 210.02948793 -129.45320501 197.39570945 -129.4645351 184.76186919 C-129.47127157 176.31816336 -129.4670587 167.8745083 -129.4540208 159.43080998 C-129.44689898 154.62319856 -129.44441404 149.815713 -129.45523874 145.00810564 C-129.46500696 140.6248815 -129.4607025 136.24189359 -129.44569676 131.85868631 C-129.44270299 130.29223187 -129.44459943 128.72575736 -129.45231458 127.15931906 C-129.5169343 113.02358699 -128.15915201 98.65490443 -123.37605286 85.25252342 C-123.12186584 84.52009422 -122.86767883 83.78766502 -122.60578918 83.033041 C-111.04715112 50.8826598 -87.4864667 25.76092282 -56.81355286 11.00642967 C-52.7174694 9.17828986 -48.54922802 7.60058068 -44.31355286 6.12752342 C-43.33370422 5.77621361 -43.33370422 5.77621361 -42.33406067 5.41780663 C-28.62754092 0.90346043 -14.31212647 -0.07049127 0 0 Z " fill="#000000" transform="translate(167.0635528564453,37.62247657775879)"/>
<path d="M0 0 C2.28789763 0.00084773 4.57579608 0.00036828 6.86369324 -0.00132751 C13.0321025 -0.00218318 19.20033437 0.01537282 25.36870265 0.03639436 C31.83088055 0.05523304 38.29306316 0.05691725 44.75526428 0.06047058 C55.5878541 0.06871549 66.42037169 0.08741452 77.25292969 0.11425781 C88.40299155 0.1418589 99.55303581 0.16306273 110.703125 0.17578125 C111.39216712 0.17656942 112.08120924 0.17735759 112.79113143 0.17816965 C116.24837633 0.18208519 119.70562136 0.18587621 123.16286647 0.18960536 C151.77536922 0.2206288 180.38780414 0.27362607 209.00024414 0.34057617 C209.33024414 1.66057617 209.66024414 2.98057617 210.00024414 4.34057617 C209.29061523 4.92452148 209.29061523 4.92452148 208.56665039 5.52026367 C204.78387754 8.72050425 201.32184723 12.00842052 198.06665039 15.74682617 C192.11110072 22.42926083 185.73816982 28.67534986 179.37524414 34.96557617 C169.66147158 44.50790874 169.66147158 44.50790874 160.5168457 54.58813477 C157.8767623 57.63876559 155.03766137 60.48733349 152.18774414 63.34057617 C151.61604492 63.92452148 151.0443457 64.5084668 150.45532227 65.11010742 C149.00979734 66.56072821 147.50923947 67.95609934 146.00024414 69.34057617 C145.34024414 69.34057617 144.68024414 69.34057617 144.00024414 69.34057617 C143.67024414 70.33057617 143.34024414 71.32057617 143.00024414 72.34057617 C142.17732282 72.34112094 141.35440149 72.34166571 140.50654316 72.34222698 C120.4400041 72.35722461 100.37368646 72.39979176 80.307271 72.47266674 C70.60309676 72.5072514 60.8990636 72.53266368 51.19482422 72.53613281 C42.73201097 72.5391818 34.26944942 72.5597975 25.80673331 72.60110074 C21.32987823 72.62234787 16.85338022 72.63507427 12.37647438 72.62672997 C8.15325818 72.61913695 3.93076235 72.63522321 -0.29232216 72.66863632 C-1.8332825 72.67680688 -3.37431535 72.6766945 -4.91526794 72.66717339 C-20.27153612 72.5817676 -31.89436278 76.48861351 -42.96459961 87.25073242 C-52.10689669 96.97287922 -54.546623 108.75093275 -54.30834961 121.78588867 C-53.33375659 133.0122133 -47.93743676 144.2745979 -39.43725586 151.77807617 C-38.30418098 152.64909629 -37.15921714 153.50500196 -35.99975586 154.34057617 C-35.11288086 155.04182617 -34.22600586 155.74307617 -33.31225586 156.46557617 C-23.1495652 162.21804258 -12.94607488 162.97463413 -1.52319336 163.06713867 C0.12499292 163.0944559 1.77315607 163.12319923 3.42129517 163.15322876 C8.94740998 163.24560418 14.4735784 163.29462575 20.00024414 163.34057617 C22.02950125 163.35931581 24.05875742 163.37815739 26.0880127 163.39709473 C36.99743033 163.49556255 47.9069986 163.57044406 58.81665039 163.63745117 C60.48431269 163.64774416 60.48431269 163.64774416 62.18566513 163.65824509 C67.89093709 163.69236345 73.59617694 163.7211598 79.30151367 163.74194336 C84.94756971 163.76301679 90.59338829 163.7983524 96.2393074 163.84270096 C98.35286289 163.85668214 100.46645977 163.86554201 102.58005905 163.86875534 C118.51914945 163.89565952 133.454661 164.77673904 148.31274414 171.15307617 C149.16030273 171.50635986 150.00786133 171.85964355 150.88110352 172.22363281 C179.16927758 184.20485773 201.8136273 205.98016443 214.00024414 234.34057617 C226.05915265 266.22145183 225.65859873 297.35294415 211.92602539 328.80053711 C197.28288109 359.64105419 171.45253916 379.75900448 140.00024414 391.34057617 C138.77047852 391.81043945 138.77047852 391.81043945 137.51586914 392.28979492 C128.73884012 395.4800271 119.65597948 395.48963459 110.40957642 395.47428894 C109.39113345 395.4765545 108.37269047 395.47882005 107.3233856 395.48115426 C103.93652588 395.48744638 100.54970668 395.48666802 97.1628418 395.48583984 C94.72453765 395.48883413 92.28623397 395.49223728 89.84793091 395.49601746 C83.92968134 395.50391586 78.01144117 395.50707062 72.09318741 395.50762983 C67.28415287 395.50810617 62.4751216 395.51016677 57.6660881 395.51333046 C44.02172354 395.52212367 30.37736682 395.52675134 16.7329994 395.52599999 C15.99892942 395.52596003 15.26485944 395.52592007 14.50854492 395.52587891 C13.40609261 395.52581759 13.40609261 395.52581759 12.28136854 395.52575503 C0.3474852 395.52534782 -11.58636671 395.53493956 -23.52024095 395.54901727 C-35.78347366 395.56336926 -48.04669102 395.57028827 -60.30993235 395.5694235 C-67.19126824 395.56909136 -74.07257107 395.57184636 -80.95389938 395.58260155 C-87.41684917 395.59263877 -93.87974704 395.59238349 -100.34270096 395.58508492 C-102.71793978 395.58403547 -105.09318289 395.58642315 -107.46841431 395.59244537 C-110.70268973 395.60011678 -113.93672017 395.59555291 -117.17098999 395.58781433 C-118.1174726 395.59295789 -119.06395522 395.59810146 -120.03911912 395.60340089 C-120.90479843 395.59880209 -121.77047774 395.59420329 -122.66238976 395.58946514 C-123.40881528 395.58968251 -124.15524081 395.58989988 -124.92428529 395.59012383 C-127.3407678 395.29957403 -128.9361367 394.61860013 -130.99975586 393.34057617 C-132.43967315 390.4607416 -132.35362528 388.53636796 -131.99975586 385.34057617 C-130.04370117 382.71923828 -130.04370117 382.71923828 -127.32788086 380.11791992 C-126.84905457 379.64995499 -126.37022827 379.18199005 -125.87689209 378.69984436 C-124.34808463 377.21108804 -122.80013102 375.74432805 -121.24975586 374.27807617 C-119.71814453 372.80416584 -118.19081177 371.32598868 -116.66546631 369.84559631 C-115.27526947 368.50046208 -113.87459964 367.16617659 -112.47338867 365.83251953 C-110.10921071 363.45084124 -108.08855653 360.96235461 -105.99975586 358.34057617 C-104.35170377 356.65550055 -102.68366467 354.98982044 -100.99975586 353.34057617 C-99.5907289 351.89922923 -98.18179939 350.45778372 -96.77552795 349.01374817 C-94.61487263 346.79910733 -92.44311329 344.59548303 -90.27099609 342.39208984 C-89.1300248 341.23090417 -87.9926556 340.06616829 -86.85888672 338.89794922 C-85.20827133 337.19866704 -83.54493449 335.51277211 -81.87866211 333.82885742 C-81.37847061 333.30802078 -80.87827911 332.78718414 -80.3629303 332.25056458 C-75.54963681 327.43426607 -71.10080454 326.12759516 -64.35134339 326.07022673 C-63.64414336 326.07420782 -62.93694333 326.07818892 -62.20831299 326.08229065 C-61.44253425 326.07861494 -60.67675552 326.07493924 -59.88777137 326.07115215 C-57.33160653 326.06120277 -54.77566054 326.06531687 -52.21948242 326.06933594 C-50.38262705 326.06494705 -48.54577367 326.0596443 -46.70892334 326.05349731 C-42.75733473 326.04200767 -38.80579968 326.03653864 -34.85419464 326.03561592 C-28.60039916 326.03367278 -22.34671413 326.01560541 -16.09295654 325.99485779 C-0.55744458 325.94569984 14.97809739 325.91480709 30.51367188 325.89355469 C42.58422915 325.87701608 54.65469172 325.85415414 66.72518563 325.81053394 C72.9360834 325.78880146 79.14680105 325.78069569 85.3577342 325.78292668 C89.2303611 325.78125465 93.10287139 325.76717344 96.97545624 325.7497139 C98.76441598 325.74413568 100.55340012 325.74360944 102.34236145 325.7486515 C117.9106615 325.7879121 131.56666688 323.67075622 143.37524414 312.52807617 C147.10985738 308.51146153 149.66714597 304.28076625 152.00024414 299.34057617 C152.3934082 298.60452148 152.78657227 297.8684668 153.19165039 297.11010742 C157.29940669 288.56540181 157.61356721 277.52800944 154.81274414 268.46557617 C154.24490985 267.07517818 153.63900165 265.69985216 153.00024414 264.34057617 C152.63672852 263.51041992 152.27321289 262.68026367 151.89868164 261.82495117 C146.27924795 249.71597794 138.09699798 243.44862937 125.68774414 238.46557617 C117.63769971 236.00963041 109.76812372 236.18967371 101.40844727 236.18286133 C100.03275391 236.17818625 98.65706207 236.17304155 97.28137207 236.16746521 C94.32784675 236.15622791 91.37433126 236.14777257 88.42079163 236.14134598 C83.73658571 236.13060366 79.05245044 236.11034037 74.36828613 236.08822632 C61.05097719 236.02651776 47.7336726 235.97241258 34.41625977 235.93920898 C27.0539573 235.92077315 19.69177373 235.89172493 12.32955885 235.85120428 C8.44302909 235.83028111 4.55664821 235.81469814 0.6700592 235.812397 C-2.99415846 235.81022487 -6.65806643 235.79409958 -10.32218933 235.76800728 C-12.28133418 235.75756749 -14.24053992 235.76152601 -16.19970703 235.76618958 C-28.83015181 235.64994651 -40.41502879 233.45895474 -51.99975586 228.34057617 C-53.62423705 227.73501592 -55.2492494 227.13087888 -56.87475586 226.52807617 C-84.92274227 215.1172494 -104.62989065 191.2681739 -116.99975586 164.34057617 C-118.84181165 159.82045466 -120.43093787 155.22670565 -121.94116211 150.58666992 C-122.86081191 147.49524317 -122.86081191 147.49524317 -123.99975586 145.34057617 C-129.48479328 120.72618092 -126.55781958 95.44132513 -116.99975586 72.34057617 C-116.61432617 71.30288086 -116.22889648 70.26518555 -115.83178711 69.19604492 C-105.82667277 43.01407904 -81.62467484 21.07867386 -56.63256836 9.38745117 C-50.55512268 6.97090007 -44.33700115 4.95506407 -37.99975586 3.34057617 C-36.55278147 2.96312272 -36.55278147 2.96312272 -35.07657528 2.57804394 C-23.38958883 -0.12190494 -11.9474605 -0.06243916 0 0 Z " fill="#F5F5F6" transform="translate(485.999755859375,411.659423828125)"/>
<path d="M0 0 C1.07411636 -0.00525696 2.14823273 -0.01051392 3.25489807 -0.01593018 C6.80452048 -0.02912574 10.35369333 -0.02038581 13.90332031 -0.01025391 C16.38511236 -0.01227653 18.86690383 -0.01518955 21.34869385 -0.01895142 C27.22387073 -0.02394194 33.09888612 -0.0134525 38.97403932 0.00250089 C44.93737246 0.01686301 50.90051539 0.00257602 56.86384201 -0.01364708 C61.9961617 -0.02457375 67.12839683 -0.02099634 72.2607193 -0.0132637 C74.70199885 -0.01128056 77.1432864 -0.01365363 79.58455658 -0.02070236 C96.43982893 -0.05864968 113.19192189 0.35956282 129.29394531 5.95068359 C130.02379639 6.20116455 130.75364746 6.45164551 131.50561523 6.7097168 C145.53573374 11.81445537 157.36219977 20.31708025 168.23144531 30.38818359 C169.12476563 31.20029297 170.01808594 32.01240234 170.93847656 32.84912109 C182.82032169 44.12866071 190.37639491 57.77939413 196.23144531 72.95068359 C196.47894531 73.56492187 196.72644531 74.17916016 196.98144531 74.81201172 C201.47337773 86.52145012 202.70225496 98.1760479 202.54394531 110.63818359 C202.5487793 112.56404297 202.5487793 112.56404297 202.55371094 114.52880859 C202.51306854 121.74098692 201.97298457 128.39293712 200.23144531 135.38818359 C200.07587158 136.0973291 199.92029785 136.80647461 199.76000977 137.53710938 C194.61334278 160.6957628 181.28361225 185.0200723 161.23144531 198.38818359 C160.90144531 199.04818359 160.57144531 199.70818359 160.23144531 200.38818359 C160.95847656 200.50419922 161.68550781 200.62021484 162.43457031 200.73974609 C173.80634152 203.37621819 180.63985295 212.66848225 186.58300781 222.02490234 C196.01868657 237.55241525 201.5247057 255.24460713 202.23144531 273.38818359 C202.27076172 274.29906738 202.31007813 275.20995117 202.35058594 276.1484375 C202.88602552 290.27632851 202.08532548 302.11009196 197.23144531 315.38818359 C196.76096648 317.11408523 196.30082591 318.84287873 195.85644531 320.57568359 C190.67463683 337.5605003 179.52640904 351.92198082 167.23144531 364.38818359 C166.36777344 365.26474609 165.50410156 366.14130859 164.61425781 367.04443359 C151.75818992 379.40457008 134.64569273 388.60803741 117.23144531 392.38818359 C116.09051926 392.64364456 114.9495932 392.89910553 113.77409363 393.16230774 C97.56604892 396.40211398 81.04771682 395.77643376 64.60209298 395.69236541 C60.25266215 395.67338759 55.90322256 395.67183178 51.55375671 395.66828918 C43.34845121 395.65902985 35.14326813 395.63450047 26.93801612 395.60424072 C17.58347822 395.57050434 8.22893394 395.55416274 -1.12564981 395.53915441 C-20.34002039 395.50794415 -39.55427763 395.45530498 -58.76855469 395.38818359 C-56.89591625 391.24568039 -54.07876415 388.77178262 -50.70605469 385.82568359 C-44.73824446 380.45958647 -39.64972128 374.77264083 -34.76855469 368.38818359 C-34.0428125 367.48970703 -33.31707031 366.59123047 -32.56933594 365.66552734 C-24.03709007 354.84014733 -17.5794629 342.57598922 -11.70605469 330.13818359 C-10.76855469 328.38818359 -10.76855469 328.38818359 -8.76855469 326.38818359 C-6.92174149 326.14043713 -6.92174149 326.14043713 -4.63604736 326.14335632 C-3.7700441 326.13941864 -2.90404083 326.13548096 -2.01179504 326.13142395 C-1.05915268 326.13711899 -0.10651031 326.14281403 0.875 326.14868164 C1.87692886 326.14666748 2.87885773 326.14465332 3.91114807 326.14257812 C6.09428379 326.13902465 8.27742978 326.13980947 10.46056366 326.14435387 C13.92599834 326.14993889 17.39109719 326.14079824 20.85650635 326.12715149 C30.71245681 326.09001111 40.56829798 326.07141833 50.42431641 326.08276367 C56.45037491 326.08864916 62.47596684 326.07017739 68.50193024 326.03687477 C70.79020126 326.0289657 73.07852376 326.03013611 75.36678314 326.04089928 C92.91843746 326.11982138 107.67767573 324.95182391 121.23144531 312.38818359 C131.46916195 300.71795063 134.12322829 287.53171715 133.41064453 272.34765625 C132.36671652 260.93271591 125.03123146 252.35008351 116.64550781 245.21240234 C106.48970625 237.5380345 95.29087126 236.07519239 82.86645508 236.1328125 C81.8959169 236.12919205 80.92537872 236.12557159 79.9254303 236.12184143 C77.8406575 236.11500317 75.75586702 236.11243141 73.67108345 236.1137886 C70.37149722 236.11476123 67.07223012 236.10172879 63.77268982 236.08480835 C54.399672 236.0387305 45.02669188 236.01389893 35.65356445 236.00732422 C29.90250116 236.00231933 24.15177907 235.97813637 18.40083122 235.94199753 C16.21315493 235.93219003 14.02543181 235.92987273 11.83773994 235.93516922 C8.78834337 235.94221365 5.73997326 235.92501637 2.69067383 235.90234375 C1.78726257 235.9105162 0.88385132 235.91868866 -0.04693604 235.92710876 C-6.13956361 235.84629705 -6.13956361 235.84629705 -9.27308655 233.5640564 C-11.2961081 230.62060513 -12.35659218 227.50110214 -13.45605469 224.13818359 C-18.23584337 210.63082614 -25.40714854 199.20972683 -34.48339844 188.18115234 C-38.64355469 183.09651693 -38.64355469 183.09651693 -39.33105469 179.20068359 C-38.38306737 172.77543621 -34.09962662 169.42025226 -29.36961365 165.29695129 C-24.69748541 162.25226718 -19.41834213 162.87527734 -14.03442383 162.95336914 C-12.85795288 162.95427551 -11.68148193 162.95518188 -10.46936035 162.95611572 C-7.2516201 162.96123628 -4.0344925 162.98352171 -0.81688619 163.01119971 C2.56735819 163.03423449 5.95152807 163.02902654 9.33583069 163.02510071 C20.12680206 163.01761967 30.91755498 163.05057103 41.70835167 163.11153203 C48.79675494 163.15154156 55.88457237 163.17114421 62.97308642 163.15315467 C66.33274194 163.14594124 69.69015511 163.15633079 73.04978752 163.19122887 C93.67743667 163.46041393 93.67743667 163.46041393 112.23144531 155.38818359 C113.12818466 154.81271286 114.02492401 154.23724213 114.94883728 153.64433289 C123.4937638 147.84734695 129.73765731 138.75468217 132.60253906 128.88818359 C134.76315032 116.86391224 134.53291517 105.13084895 128.23144531 94.38818359 C127.80863281 93.65470703 127.38582031 92.92123047 126.95019531 92.16552734 C121.02991062 83.23346991 110.43284531 76.40876936 100.06672382 73.85485935 C96.63166163 73.28946154 93.26707232 73.23491474 89.79667664 73.22996521 C89.05736509 73.22502723 88.31805354 73.22008926 87.55633861 73.21500164 C85.08435489 73.19966977 82.61239707 73.19127774 80.14038086 73.18286133 C78.36626458 73.17327941 76.59215057 73.16326915 74.81803894 73.15286255 C70.00445347 73.12584139 65.19085823 73.10481672 60.37723899 73.08486056 C55.34569759 73.06298382 50.31418623 73.03560339 45.28266907 73.00880432 C35.75595682 72.95890028 26.22922788 72.91395295 16.702483 72.87078196 C5.85612069 72.82139003 -4.99021148 72.76647915 -15.83654463 72.71110237 C-38.14718652 72.59731745 -60.45785733 72.4904708 -82.76855469 72.38818359 C-81.05830003 68.72383408 -79.00857545 66.4536247 -76.08105469 63.63818359 C-73.14060124 60.80290966 -70.34750923 57.92951678 -67.69946289 54.82348633 C-63.37446268 49.86051007 -58.74029876 45.23448454 -54.07324219 40.59521484 C-53.1627713 39.68615891 -52.25230042 38.77710297 -51.3142395 37.84049988 C-48.9149601 35.44500057 -46.51269568 33.05251759 -44.10974121 30.66070557 C-41.66997283 28.23119514 -39.23305124 25.79883295 -36.79589844 23.36669922 C-27.44032613 14.03186839 -27.44032613 14.03186839 -23.77435303 10.39883423 C-22.17090371 8.79150596 -20.60575484 7.1460021 -19.05419922 5.48852539 C-13.15538087 0.06793852 -7.62137687 -0.04597046 0 0 Z " fill="#F1F1F3" transform="translate(748.7685546875,411.61181640625)"/>
<path d="M0 0 C28.21345171 -0.35776929 54.52793226 0.84183912 82.13183594 7.28613281 C85.26866865 8.01741614 88.409914 8.72466059 91.55371094 9.42529297 C93.39777543 9.84448479 95.24154555 10.26497456 97.08496094 10.68701172 C97.89465332 10.86852783 98.7043457 11.05004395 99.53857422 11.23706055 C104.60838229 12.43428995 109.32244487 14.08998025 114.12597656 16.10571289 C116.50353776 17.07986636 118.90141457 17.92651003 121.33496094 18.74951172 C127.91267196 21.09666615 134.21943258 24.05105053 140.55517578 26.97680664 C141.38871582 27.3594165 142.22225586 27.74202637 143.08105469 28.13623047 C143.82798584 28.48258545 144.57491699 28.82894043 145.34448242 29.18579102 C147.37047627 30.02494762 149.3213951 30.59171475 151.45996094 31.06201172 C151.45996094 31.72201172 151.45996094 32.38201172 151.45996094 33.06201172 C151.99363281 33.20896484 152.52730469 33.35591797 153.07714844 33.50732422 C159.56139338 35.45932875 164.7757299 38.43317594 170.45996094 42.06201172 C171.9618726 43.00062074 173.46454483 43.9380133 174.96777344 44.87451172 C181.84637511 49.17074502 188.72383573 53.4823454 195.45996094 57.99951172 C196.18183594 58.48291016 196.90371094 58.96630859 197.64746094 59.46435547 C199.45996094 61.06201172 199.45996094 61.06201172 200.95996094 63.56591797 C202.56298807 66.2334553 203.72784996 67.58423422 206.45996094 69.06201172 C208.74236357 68.99037223 208.74236357 68.99037223 211.08496094 68.24951172 C218.70699539 66.49487915 224.68606584 65.69861409 231.77246094 69.56201172 C236.36700893 72.68051594 239.721954 75.69078425 241.45996094 81.06201172 C242.39059966 87.76093372 242.39189586 94.40589884 238.86230469 100.34716797 C234.69168109 105.44717843 228.81783815 109.57696104 222.21386719 110.31201172 C216.1539258 110.60716868 211.34886043 109.80185723 206.45996094 106.06201172 C201.45996094 100.59972461 201.45996094 100.59972461 201.45996094 97.06201172 C200.79996094 97.06201172 200.13996094 97.06201172 199.45996094 97.06201172 C198.4014746 93.88655269 198.29325216 91.52192376 198.27246094 88.18701172 C198.25828125 87.15833984 198.24410156 86.12966797 198.22949219 85.06982422 C198.46414725 82.00737683 199.16811521 79.82952311 200.45996094 77.06201172 C199.60349976 76.65583618 199.60349976 76.65583618 198.72973633 76.24145508 C196.4024737 75.03213963 194.30603562 73.67389021 192.14355469 72.19091797 C164.96238285 53.70876856 136.34004382 38.2614649 104.95996094 28.12451172 C103.96565567 27.80210007 103.96565567 27.80210007 102.95126343 27.47317505 C93.153246 24.31934188 83.34279512 21.65909652 73.27246094 19.49951172 C72.15871094 19.26047119 71.04496094 19.02143066 69.89746094 18.77514648 C63.80001376 17.539713 57.82486201 16.72578526 51.61108398 16.39038086 C48.93126304 16.11112471 46.49351364 15.64084663 43.87255859 15.0534668 C37.91773961 13.82654269 32.09772648 13.73935872 26.03417969 13.72607422 C24.86104218 13.71769531 23.68790466 13.70931641 22.47921753 13.70068359 C18.70182714 13.68121492 14.92489297 13.68108821 11.14746094 13.68701172 C9.86096649 13.68755554 8.57447205 13.68809937 7.24899292 13.68865967 C-11.35262682 13.72497082 -29.28942088 14.19474841 -47.54003906 18.06201172 C-48.6942334 18.29758789 -49.84842773 18.53316406 -51.03759766 18.77587891 C-61.65168684 20.97368056 -71.97551431 23.35602975 -82.12890625 27.18310547 C-84.91709092 28.19945468 -87.70469755 28.92823919 -90.60253906 29.56201172 C-96.18761037 30.90471428 -101.26784197 32.80652633 -106.54003906 35.06201172 C-108.74150421 35.99315774 -110.94481211 36.91955178 -113.15063477 37.84033203 C-114.68269363 38.48009641 -116.21255639 39.12514957 -117.73999023 39.77587891 C-123.20290029 42.06201172 -123.20290029 42.06201172 -126.54003906 42.06201172 C-126.54003906 42.72201172 -126.54003906 43.38201172 -126.54003906 44.06201172 C-127.07081055 44.28840332 -127.60158203 44.51479492 -128.1484375 44.74804688 C-149.76604532 54.14068645 -170.52495269 66.85968976 -188.54003906 82.06201172 C-190.14303138 83.31351735 -191.74724995 84.56345352 -193.35253906 85.81201172 C-209.36792075 98.67397717 -225.25340723 113.60157714 -237.54003906 130.06201172 C-238.38915361 131.12621259 -239.24234024 132.1871717 -240.09863281 133.24560547 C-246.77700049 141.52884312 -252.77342786 150.12528722 -258.54003906 159.06201172 C-259.18972656 160.05330078 -259.83941406 161.04458984 -260.50878906 162.06591797 C-268.70660913 174.70422391 -275.66689649 188.19574196 -281.54003906 202.06201172 C-281.97703125 203.01978516 -282.41402344 203.97755859 -282.86425781 204.96435547 C-292.15014635 225.63809586 -298.51356702 247.6085668 -302.17675781 269.93994141 C-302.52609678 271.98056931 -302.91508926 274.00858063 -303.32128906 276.03857422 C-310.05318991 310.19565371 -308.38090762 345.33525612 -303.66503906 379.62451172 C-303.44122559 381.28135986 -303.44122559 381.28135986 -303.21289062 382.97167969 C-301.08665684 397.5835583 -296.91897994 411.78497802 -292.79003906 425.93701172 C-292.57482605 426.67636963 -292.35961304 427.41572754 -292.13787842 428.17749023 C-288.78567023 439.61556169 -284.75671828 450.33475586 -279.54003906 461.06201172 C-278.85378223 462.80442269 -278.18406091 464.55355208 -277.54003906 466.31201172 C-275.6651395 471.22083966 -272.98157928 475.63622143 -270.18066406 480.06689453 C-267.85297492 483.90008717 -267.04122866 486.59215224 -267.54003906 491.06201172 C-268.60253906 492.93701172 -268.60253906 492.93701172 -270.54003906 494.06201172 C-272.87293264 494.10731062 -275.20721076 494.11055612 -277.54003906 494.06201172 C-284.02702061 483.04014955 -289.58152774 471.84908417 -294.54003906 460.06201172 C-294.91644531 459.17384766 -295.29285156 458.28568359 -295.68066406 457.37060547 C-296.67471752 454.94865319 -297.60860591 452.50876148 -298.54003906 450.06201172 C-298.9006543 449.15902344 -298.9006543 449.15902344 -299.26855469 448.23779297 C-315.49005194 407.58726286 -315.49005194 407.58726286 -314.54003906 389.06201172 C-315.20003906 389.06201172 -315.86003906 389.06201172 -316.54003906 389.06201172 C-319.81278046 368.97295017 -320.93101119 348.83219264 -320.85253906 328.49951172 C-320.85005157 327.45885559 -320.84756409 326.41819946 -320.84500122 325.3460083 C-320.74203448 297.34066055 -317.73184328 271.17314483 -310.54003906 244.06201172 C-310.25660645 242.98838379 -309.97317383 241.91475586 -309.68115234 240.80859375 C-305.31339177 224.46246316 -305.31339177 224.46246316 -301.54003906 217.06201172 C-300.21210797 213.55468541 -299.05231973 209.98840188 -297.87792969 206.42724609 C-296.22764001 201.58088088 -294.14375119 197.46829377 -291.54003906 193.06201172 C-290.85349564 191.47484143 -290.20215699 189.87151965 -289.60253906 188.24951172 C-287.581686 183.00817568 -285.12657243 178.04426862 -282.54003906 173.06201172 C-281.88003906 173.06201172 -281.22003906 173.06201172 -280.54003906 173.06201172 C-280.43369141 172.07394531 -280.43369141 172.07394531 -280.32519531 171.06591797 C-279.24268488 166.92437307 -277.18453991 163.64193714 -274.97753906 159.99951172 C-274.52789795 159.24798828 -274.07825684 158.49646484 -273.61499023 157.72216797 C-268.32047528 148.93763917 -262.77074158 140.40249828 -256.36035156 132.38232422 C-255.06994153 130.7374668 -253.81822963 129.06191431 -252.59472656 127.36669922 C-243.29061183 114.49200171 -232.00739989 103.44787344 -220.85253906 92.18701172 C-219.5710498 90.88582397 -219.5710498 90.88582397 -218.26367188 89.55834961 C-212.33734849 83.62464387 -206.10680532 78.27202846 -199.54003906 73.06201172 C-198.12704814 71.91255544 -196.71426935 70.7628383 -195.30175781 69.61279297 C-180.41001996 57.6928871 -164.49235438 47.62584947 -147.79003906 38.43701172 C-146.90993164 37.95216309 -146.02982422 37.46731445 -145.12304688 36.96777344 C-140.1135207 34.27055613 -135.07787224 31.96254906 -129.7578125 29.94335938 C-127.61324583 29.09110424 -125.58787503 28.12337849 -123.54003906 27.06201172 C-118.98756093 24.7363868 -114.3112331 22.89017024 -109.54003906 21.06201172 C-108.5993457 20.68471924 -108.5993457 20.68471924 -107.63964844 20.29980469 C-94.75690332 15.13523653 -81.73602189 11.68817806 -68.20214844 8.66259766 C-65.09601192 7.96183685 -62.00695966 7.19772234 -58.91503906 6.43701172 C-39.17995297 2.01635243 -20.19046337 0.27680559 0 0 Z " fill="#EDEDEE" transform="translate(619.5400390625,269.93798828125)"/>
<path d="M0 0 C4.92418647 2.82252338 9.21001638 7.42003277 11.75 12.5 C11.7093149 16.07289174 11.62390003 19.63451131 11.44726562 23.203125 C11.27508355 27.96242189 11.27508355 27.96242189 13.76171875 31.9140625 C14.41785156 32.43742188 15.07398438 32.96078125 15.75 33.5 C15.75 34.16 15.75 34.82 15.75 35.5 C16.45382812 35.58378906 17.15765625 35.66757812 17.8828125 35.75390625 C21.44070416 36.67973364 23.64791391 38.28233208 26.625 40.4375 C27.78971452 41.26393774 28.95510456 42.08942411 30.12109375 42.9140625 C30.72163574 43.34235352 31.32217773 43.77064453 31.94091797 44.21191406 C48.51998682 56.01639008 67.16009584 68.1672283 86.5625 74.625 C89.37260454 75.56308512 91.73149766 76.48882986 94.2734375 78.0234375 C96.72232494 79.48349973 98.82295727 80.25647306 101.5625 81 C105.25148502 82.04935937 108.81174224 83.2564348 112.3984375 84.62109375 C122.93621273 88.559631 133.27829958 91.40403842 144.30078125 93.59375 C147.94444022 94.31925392 151.53211243 95.17575626 155.125 96.125 C176.31203457 101.45798818 198.48258119 100.58784933 220.1875 100.625 C221.54507919 100.62901825 221.54507919 100.62901825 222.93008423 100.63311768 C225.51462903 100.63892689 228.09904844 100.6372679 230.68359375 100.6328125 C231.46892487 100.63478638 232.25425598 100.63676025 233.06338501 100.63879395 C237.03615986 100.70714533 237.03615986 100.70714533 240.75 99.5 C243.70855722 99.17127142 246.66049778 98.88713667 249.625 98.625 C252.42592331 98.34722867 255.22592168 98.06126078 258.02587891 97.77392578 C259.71216466 97.60436021 261.39925281 97.44235796 263.08740234 97.29248047 C284.99480097 95.27973519 308.68542043 87.6380229 328.625 78.30859375 C329.88570312 77.72754883 329.88570312 77.72754883 331.171875 77.13476562 C332.89212022 76.33589417 334.6108736 75.53380245 336.328125 74.72851562 C341.42975586 72.38505176 346.25695429 70.67617298 351.75 69.5 C351.75 68.84 351.75 68.18 351.75 67.5 C353.47669922 66.62601563 353.47669922 66.62601563 355.23828125 65.734375 C378.6130771 53.76052732 399.56317508 39.46555298 418.75 21.5 C420.8599918 19.64077123 422.98315088 17.79962561 425.12109375 15.97265625 C426.90765873 14.43051616 426.90765873 14.43051616 428.75 12.0625 C432.00262892 9.52138365 434.70851637 10.10888868 438.75 10.5 C440.75 12.5 440.75 12.5 441.30078125 15.6640625 C440.52212583 21.08703852 437.8547308 23.25566639 433.9375 26.875 C433.25187988 27.53201904 432.56625977 28.18903809 431.85986328 28.8659668 C426.39357377 34.04815226 420.7146458 38.89992784 414.75 43.5 C413.29787109 44.66015625 413.29787109 44.66015625 411.81640625 45.84375 C397.6476127 57.02312269 382.43207947 66.60246201 366.75 75.5 C365.93176758 75.96857422 365.11353516 76.43714844 364.27050781 76.91992188 C354.31951133 82.60297106 344.62850797 87.81021367 333.75 91.5 C332.41464518 91.99457586 331.08105933 92.49397744 329.75 93 C329.11964844 93.23203125 328.48929688 93.4640625 327.83984375 93.703125 C326.30039678 94.29012908 324.77325417 94.9096524 323.25390625 95.546875 C307.84022685 101.85154068 291.3872266 106.24220286 274.95703125 108.89453125 C271.75696361 109.41885296 271.75696361 109.41885296 268.8203125 110.5078125 C265.18211406 111.6835153 261.59532885 112.15782529 257.8125 112.5625 C257.15443359 112.64048828 256.49636719 112.71847656 255.81835938 112.79882812 C210.65365921 117.89195834 164.27205805 116.0221822 120.75 102.5 C118.6837105 101.87851794 116.61730416 101.25742424 114.55078125 100.63671875 C112.57457639 100.03172228 110.59927097 99.42377777 108.625 98.8125 C107.30060913 98.40281982 107.30060913 98.40281982 105.94946289 97.98486328 C101.25141269 96.47635264 96.9269099 94.69819068 92.55517578 92.4128418 C90.02880482 91.13530582 87.41459875 90.19961764 84.75 89.25 C64.92950043 81.74603641 46.05453647 70.6477936 28.75 58.5 C28.07179199 58.02852539 27.39358398 57.55705078 26.69482422 57.07128906 C24.62040966 55.62290404 22.55831674 54.15865192 20.5 52.6875 C19.86747314 52.24349854 19.23494629 51.79949707 18.58325195 51.34204102 C15.00701089 48.74136059 12.82271203 46.38716282 10.75 42.5 C7.74336043 40.06218413 6.45713195 39.44453867 2.5625 39.75 C-0.17618063 40.37906826 -0.17618063 40.37906826 -2.25 41.5 C-4.51832709 41.62362239 -6.79083787 41.67560648 -9.0625 41.6875 C-10.28582031 41.70167969 -11.50914062 41.71585938 -12.76953125 41.73046875 C-19.13286839 41.30910299 -22.41658168 38.92088719 -26.66796875 34.41015625 C-31.03234809 29.1405723 -31.81181008 23.84359842 -31.59375 17.2109375 C-30.72285431 10.34273737 -27.34287679 6.05742434 -22.12890625 1.7265625 C-15.56697673 -2.55710874 -7.19771859 -3.17092476 0 0 Z " fill="#DFE2E5" transform="translate(415.25,826.5)"/>
<path d="M0 0 C7.20712394 -0.39905216 12.03415561 1.74585788 17.578125 6.30859375 C21.93301822 10.62434186 22.90970207 14.75561383 23.140625 20.80859375 C22.83705766 27.54156174 21.71495008 32.38132692 16.70703125 37.0546875 C10.71351665 41.77925383 5.8164974 43.8113688 -1.859375 43.6171875 C-6.81027558 43.02096624 -10.64562628 41.24906985 -14.02734375 37.5546875 C-17.421875 33.00012036 -17.421875 33.00012036 -17.421875 30.30859375 C-18.081875 30.30859375 -18.741875 30.30859375 -19.421875 30.30859375 C-20.48622935 27.1155307 -20.62252853 24.66415379 -20.671875 21.30859375 C-20.69765625 20.25671875 -20.7234375 19.20484375 -20.75 18.12109375 C-20.36584892 14.82837022 -19.88320602 14.38071653 -17.421875 12.30859375 C-15.22318318 9.45238837 -13.03740973 6.58789125 -10.87109375 3.70703125 C-7.39284821 0.30090244 -4.60554622 0.58683573 0 0 Z " fill="#F7F7F7" transform="translate(838.421875,336.69140625)"/>
<path d="M0 0 C1.29355156 -0.00618599 1.29355156 -0.00618599 2.61323547 -0.01249695 C3.55622498 -0.00171112 4.49921448 0.00907471 5.47077942 0.02018738 C6.4660817 0.0197493 7.46138397 0.01931122 8.48684692 0.01885986 C11.78222658 0.02095271 15.07709978 0.04430754 18.37239075 0.0677948 C20.65496543 0.07338898 22.93754372 0.07765992 25.22012329 0.08065796 C31.23226337 0.0921207 37.24418655 0.12160035 43.25624084 0.1547699 C49.38932867 0.18543989 55.52245149 0.19915674 61.65559387 0.21427917 C73.69279862 0.24646853 85.72984229 0.29768228 97.766922 0.36076355 C97.766922 0.69076355 97.766922 1.02076355 97.766922 1.36076355 C47.771922 1.85576355 47.771922 1.85576355 -3.233078 2.36076355 C-4.223078 4.34076355 -5.213078 6.32076355 -6.233078 8.36076355 C-7.223078 8.69076355 -8.213078 9.02076355 -9.233078 9.36076355 C-7.59755855 3.69935005 -6.37216892 -0.02351354 0 0 Z " fill="#CECFCE" transform="translate(744.2330780029297,737.6392364501953)"/>
<path d="M0 0 C2.475 0.99 2.475 0.99 5 2 C2.90670989 6.70990274 -0.28324214 10.46908003 -4 14 C-3.67 12.35 -3.34 10.7 -3 9 C-3.639375 8.71125 -4.27875 8.4225 -4.9375 8.125 C-7 7 -7 7 -8 5 C-7.21625 4.855625 -6.4325 4.71125 -5.625 4.5625 C-3.03578982 4.12201075 -3.03578982 4.12201075 -1 3 C-0.67 2.01 -0.34 1.02 0 0 Z " fill="#C9CBCC" transform="translate(823,338)"/>
<path d="M0 0 C0.33 0.99 0.66 1.98 1 3 C-0.72772256 4.89716645 -2.45712734 6.79275305 -4.1875 8.6875 C-4.67025391 9.21794922 -5.15300781 9.74839844 -5.65039062 10.29492188 C-9.82876282 14.86589279 -14.07152118 19.31520413 -18.8125 23.3125 C-19.41707031 23.82425781 -20.02164063 24.33601562 -20.64453125 24.86328125 C-21.09183594 25.23839844 -21.53914062 25.61351562 -22 26 C-22.66 25.67 -23.32 25.34 -24 25 C-23.09378906 24.18917969 -22.18757812 23.37835937 -21.25390625 22.54296875 C-13.79304652 15.7885172 -7.14740398 8.99315059 -1 1 C-0.67 0.67 -0.34 0.34 0 0 Z " fill="#C4C6C9" transform="translate(715,779)"/>
<path d="M0 0 C0.66 0.33 1.32 0.66 2 1 C-4.27 7.27 -10.54 13.54 -17 20 C-17.66 19.67 -18.32 19.34 -19 19 C-12.66666667 12.66666667 -6.33333333 6.33333333 0 0 Z " fill="#D9D8DA" transform="translate(733,414)"/>
<path d="M0 0 C0.33 0 0.66 0 1 0 C1.33 1.98 1.66 3.96 2 6 C2.33 6 2.66 6 3 6 C3.05449838 7.72880982 3.09301688 9.45812712 3.125 11.1875 C3.14820313 12.15042969 3.17140625 13.11335937 3.1953125 14.10546875 C2.9913544 17.12812778 2.26874632 19.26769985 1 22 C0.67 22 0.34 22 0 22 C0 14.74 0 7.48 0 0 Z " fill="#2B2C2B" transform="translate(951,512)"/>
<path d="M0 0 C3.375 -0.1875 3.375 -0.1875 7 0 C7.66 0.99 8.32 1.98 9 3 C2.565 3.495 2.565 3.495 -4 4 C-3.01 3.67 -2.02 3.34 -1 3 C-0.67 2.01 -0.34 1.02 0 0 Z " fill="#383939" transform="translate(836,334)"/>
<path d="M0 0 C0.33 0.99 0.66 1.98 1 3 C-0.43359375 5.04296875 -0.43359375 5.04296875 -2.4375 7.1875 C-3.09621094 7.90292969 -3.75492188 8.61835937 -4.43359375 9.35546875 C-5.20896484 10.16951172 -5.20896484 10.16951172 -6 11 C-6.99 10.67 -7.98 10.34 -9 10 C-6.03 6.7 -3.06 3.4 0 0 Z " fill="#B9BABD" transform="translate(715,779)"/>
<path d="M0 0 C0.66 0.33 1.32 0.66 2 1 C1.06409496 2.1055189 0.12620142 3.20935453 -0.8125 4.3125 C-1.33457031 4.92738281 -1.85664062 5.54226563 -2.39453125 6.17578125 C-3.87172469 7.85424679 -5.40039131 9.43882034 -7 11 C-6.8125 7.6875 -6.8125 7.6875 -6 4 C-3.5 2.125 -3.5 2.125 -1 1 C-0.67 0.67 -0.34 0.34 0 0 Z " fill="#E0E0E2" transform="translate(826,341)"/>
<path d="M0 0 C2 4 2 4 1.3125 6.6875 C0 9 0 9 -3 10 C-2.01 6.7 -1.02 3.4 0 0 Z " fill="#C5C6C9" transform="translate(322,475)"/>
<path d="M0 0 C-5.33561839 2.2866936 -9.27898766 3.47111746 -15 2 C-10.44160484 -0.7350371 -5.08761101 -1.83153997 0 0 Z " fill="#A5A9AC" transform="translate(691,923)"/>
<path d="M0 0 C0 4.35251187 -2.06165511 5.92809398 -5 9 C-7.171875 9.6796875 -7.171875 9.6796875 -9 10 C-8.06409496 8.8944811 -7.12620142 7.79064547 -6.1875 6.6875 C-5.66542969 6.07261719 -5.14335938 5.45773437 -4.60546875 4.82421875 C-3.12827531 3.14575321 -1.59960869 1.56117966 0 0 Z " fill="#404040" transform="translate(662,449)"/>
<path d="M0 0 C0.33 0 0.66 0 1 0 C1.22211116 1.93596892 1.42722992 3.87389328 1.625 5.8125 C1.74101562 6.89144531 1.85703125 7.97039063 1.9765625 9.08203125 C2 12 2 12 0 15 C-1.09651823 11.58860997 -0.94215473 8.79344419 -0.5625 5.25 C-0.46066406 4.26515625 -0.35882813 3.2803125 -0.25390625 2.265625 C-0.17011719 1.51796875 -0.08632813 0.7703125 0 0 Z " fill="#484949" transform="translate(427,842)"/>
<path d="M0 0 C0.66 0.33 1.32 0.66 2 1 C-1.625 7.875 -1.625 7.875 -5 9 C-3.90931332 5.22454612 -3.0916909 2.52956528 0 0 Z " fill="#ADADAF" transform="translate(740,738)"/>
<path d="M0 0 C0.33 0.66 0.66 1.32 1 2 C-0.98 4.31 -2.96 6.62 -5 9 C-5.66 8.67 -6.32 8.34 -7 8 C-4.69 5.36 -2.38 2.72 0 0 Z " fill="#C4C4C7" transform="translate(380,770)"/>
<path d="M0 0 C0.66 0 1.32 0 2 0 C2.33 2.64 2.66 5.28 3 8 C2.01 8.495 2.01 8.495 1 9 C0.67 6.03 0.34 3.06 0 0 Z " fill="#D8D9D9" transform="translate(947,668)"/>
<path d="M0 0 C0.66 0.33 1.32 0.66 2 1 C-1.61328125 5.6875 -1.61328125 5.6875 -3 7 C-3.99 7 -4.98 7 -6 7 C-4.60667426 3.63279613 -3.0210714 2.0140476 0 0 Z " fill="#313131" transform="translate(915,605)"/>
<path d="M0 0 C0.33 0 0.66 0 1 0 C1.28571429 8.57142857 1.28571429 8.57142857 -1 12 C-1.33 9.69 -1.66 7.38 -2 5 C-1.34 5 -0.68 5 0 5 C0 3.35 0 1.7 0 0 Z " fill="#99999A" transform="translate(950,702)"/>
<path d="M0 0 C2 4 2 4 1.25 7.1875 C0 10 0 10 -2 11 C-1.34 7.37 -0.68 3.74 0 0 Z " fill="#3D3D3E" transform="translate(323,510)"/>
</svg>
